<?xml version="1.0" encoding="UTF-8"?>
<svg width="244px" height="208px" viewBox="0 0 244 208" version="1.1" xmlns="http://www.w3.org/2000/svg" xmlns:xlink="http://www.w3.org/1999/xlink">
    <!-- Generator: Sketch 55 (78076) - https://sketchapp.com -->
    <title>移动商城</title>
    <desc>Created with Sketch.</desc>
    <g id="Page-1" stroke="none" stroke-width="1" fill="none" fill-rule="evenodd">
        <g id="亮背景时使用" transform="translate(-544.000000, -40.000000)">
            <g id="暂无商品" transform="translate(544.000000, 40.000000)">
                <g id="背景/彩">
                    <g id="-">
                        <g id="编组" transform="translate(28.400000, 18.400000)">
                            <polyline id="路径" stroke="#DEF5FF" stroke-width="40" stroke-linecap="round" stroke-linejoin="round" points="121.6 27.4476562 49.6 71.0238281 121.6 66.6 129.6 66.6 72.167827 114.6"></polyline>
                            <path d="M1.6,146.2 C0.7163444,146.2 -5.68434189e-14,145.483656 -5.68434189e-14,144.6 C-5.68434189e-14,143.716344 0.7163444,143 1.6,143 L141.6,143 C142.483656,143 143.2,143.716344 143.2,144.6 C143.2,145.483656 142.483656,146.2 141.6,146.2 L1.6,146.2 Z M149.6,146.2 C148.716344,146.2 148,145.483656 148,144.6 C148,143.716344 148.716344,143 149.6,143 L154.6,143 C155.483656,143 156.2,143.716344 156.2,144.6 C156.2,145.483656 155.483656,146.2 154.6,146.2 L149.6,146.2 Z M167.6,146.2 C166.716344,146.2 166,145.483656 166,144.6 C166,143.716344 166.716344,143 167.6,143 L185.6,143 C186.483656,143 187.2,143.716344 187.2,144.6 C187.2,145.483656 186.483656,146.2 185.6,146.2 L167.6,146.2 Z M47.6,161.2 C46.7163444,161.2 46,160.483656 46,159.6 C46,158.716344 46.7163444,158 47.6,158 L61.6,158 C62.4836556,158 63.2,158.716344 63.2,159.6 C63.2,160.483656 62.4836556,161.2 61.6,161.2 L47.6,161.2 Z M70.6,161.2 C69.7163444,161.2 69,160.483656 69,159.6 C69,158.716344 69.7163444,158 70.6,158 L131.6,158 C132.483656,158 133.2,158.716344 133.2,159.6 C133.2,160.483656 132.483656,161.2 131.6,161.2 L70.6,161.2 Z M160,105.6 C160,103.466667 163.2,103.466667 163.2,105.6 L163.2,111.6 C163.2,112.483656 162.483656,113.2 161.6,113.2 L155.6,113.2 C153.466667,113.2 153.466667,110 155.6,110 L160,110 L160,105.6 Z M163.2,117.6 C163.2,119.733333 160,119.733333 160,117.6 L160,111.6 C160,110.716344 160.716344,110 161.6,110 L167.6,110 C169.733333,110 169.733333,113.2 167.6,113.2 L163.2,113.2 L163.2,117.6 Z M8,57.6 C8,55.4666667 11.2,55.4666667 11.2,57.6 L11.2,63.6 C11.2,64.4836556 10.4836556,65.2 9.6,65.2 L3.6,65.2 C1.46666667,65.2 1.46666667,62 3.6,62 L8,62 L8,57.6 Z M156.2,7 L161.6,7 C163.733333,7 163.733333,10.2 161.6,10.2 L156.2,10.2 L156.2,15.6 C156.2,17.7333333 153,17.7333333 153,15.6 L153,10.2 L147.6,10.2 C145.466667,10.2 145.466667,7 147.6,7 L153,7 L153,1.6 C153,-0.533333333 156.2,-0.533333333 156.2,1.6 L156.2,7 Z M11.2,69.6 C11.2,71.7333333 8,71.7333333 8,69.6 L8,63.6 C8,62.7163444 8.7163444,62 9.6,62 L15.6,62 C17.7333333,62 17.7333333,65.2 15.6,65.2 L11.2,65.2 L11.2,69.6 Z" id="Path-2" fill="#333745" fill-rule="nonzero"></path>
                            <path d="M28.1857864,122.286292 C29.1285955,121.343482 30.542809,122.757696 29.6,123.700505 L27.4786797,125.821825 C27.0881554,126.21235 26.4549904,126.21235 26.0644661,125.821825 L23.9431458,123.700505 C23.0003367,122.757696 24.4145503,121.343482 25.3573593,122.286292 L26.7715729,123.700505 L28.1857864,122.286292 Z M25.3573593,127.943146 C24.4145503,128.885955 23.0003367,127.471741 23.9431458,126.528932 L26.0644661,124.407612 C26.4549904,124.017088 27.0881554,124.017088 27.4786797,124.407612 L29.6,126.528932 C30.542809,127.471741 29.1285955,128.885955 28.1857864,127.943146 L26.7715729,126.528932 L25.3573593,127.943146 Z M45.8426407,17.6 C46.7854497,16.657191 48.1996633,18.0714045 47.2568542,19.0142136 L45.1355339,21.1355339 C44.7450096,21.5260582 44.1118446,21.5260582 43.7213203,21.1355339 L41.6,19.0142136 C40.657191,18.0714045 42.0714045,16.657191 43.0142136,17.6 L44.4284271,19.0142136 L45.8426407,17.6 Z M43.0142136,23.2568542 C42.0714045,24.1996633 40.657191,22.7854497 41.6,21.8426407 L43.7213203,19.7213203 C44.1118446,19.3307961 44.7450096,19.3307961 45.1355339,19.7213203 L47.2568542,21.8426407 C48.1996633,22.7854497 46.7854497,24.1996633 45.8426407,23.2568542 L44.4284271,21.8426407 L43.0142136,23.2568542 Z" id="Path复制" fill="#657180" fill-rule="nonzero"></path>
                        </g>
                    </g>
                </g>
                <g id="Group-7" transform="translate(84.000000, 50.000000)">
                    <path d="M68,37 L68,96 C68,98.209139 66.209139,100 64,100 L12,100 C9.790861,100 8,98.209139 8,96 L8,37" id="Path" stroke="#333745" stroke-width="3.2" fill="#C1A5FF"></path>
                    <path d="M8,14 L8,4 C8,1.790861 9.790861,0 12,0 L64,0 C66.209139,0 68,1.790861 68,4 L68,14" id="Path" stroke="#333745" stroke-width="3.2" fill="#C1A5FF"></path>
                    <polyline id="Path-14" stroke="#333745" stroke-width="3.2" fill="#FAF7FF" points="8 37.0185547 8 84.0185547 68 84.0185547 68 37.0185547"></polyline>
                    <path d="M8,84 L68,84" id="Path-6" stroke="#333745" stroke-width="3.2"></path>
                    <path d="M32,92 L44,92" id="Path-6-Copy" stroke="#333745" stroke-width="3.2" stroke-linecap="round"></path>
                    <polygon id="Path-6-Copy-2" stroke="#333745" stroke-width="3.2" fill="#FFC107" stroke-linecap="round" stroke-linejoin="round" points="8 14 68 14 76 26 0 26"></polygon>
                    <path d="M0,26 L10.8999996,26 L10.8999996,32.5500002 C10.8999996,35.559952 8.45995159,38 5.44999981,38 L5.44999981,38 C2.44004803,38 3.68612781e-16,35.559952 0,32.5500002 L0,26 Z" id="Rectangle-3" stroke="#333745" stroke-width="3.2" fill="#FFDB00" stroke-linecap="round" stroke-linejoin="round"></path>
                    <path d="M10.8999996,26 L21.7999992,26 L21.7999992,32.5500002 C21.7999992,35.559952 19.3599512,38 16.3499994,38 L16.3499994,38 C13.3400476,38 10.8999996,35.559952 10.8999996,32.5500002 L10.8999996,26 Z" id="Rectangle-3" stroke="#333745" stroke-width="3.2" fill="#FFDB00" stroke-linecap="round" stroke-linejoin="round"></path>
                    <path d="M21.7999992,26 L32.6999989,26 L32.6999989,32.5500002 C32.6999989,35.559952 30.2599508,38 27.249999,38 L27.249999,38 C24.2400473,38 21.7999992,35.559952 21.7999992,32.5500002 L21.7999992,26 Z" id="Rectangle-3" stroke="#333745" stroke-width="3.2" fill="#FFDB00" stroke-linecap="round" stroke-linejoin="round"></path>
                    <path d="M32.6999989,26 L43.5999985,26 L43.5999985,32.5500002 C43.5999985,35.559952 41.1599504,38 38.1499987,38 L38.1499987,38 C35.1400469,38 32.6999989,35.559952 32.6999989,32.5500002 L32.6999989,26 Z" id="Rectangle-3" stroke="#333745" stroke-width="3.2" fill="#FFDB00" stroke-linecap="round" stroke-linejoin="round"></path>
                    <path d="M43.5999985,26 L54.4999981,26 L54.4999981,32.5500002 C54.4999981,35.559952 52.0599501,38 49.0499983,38 L49.0499983,38 C46.0400465,38 43.5999985,35.559952 43.5999985,32.5500002 L43.5999985,26 Z" id="Rectangle-3" stroke="#333745" stroke-width="3.2" fill="#FFDB00" stroke-linecap="round" stroke-linejoin="round"></path>
                    <path d="M54.4999981,26 L65.3999977,26 L65.3999977,32.5500002 C65.3999977,35.559952 62.9599497,38 59.9499979,38 L59.9499979,38 C56.9400461,38 54.4999981,35.559952 54.4999981,32.5500002 L54.4999981,26 Z" id="Rectangle-3" stroke="#333745" stroke-width="3.2" fill="#FFDB00" stroke-linecap="round" stroke-linejoin="round"></path>
                    <path d="M66,26 L76,26 L76,33 C76,35.7614237 73.7614237,38 71,38 L71,38 C68.2385763,38 66,35.7614237 66,33 L66,26 Z" id="Rectangle-3" stroke="#333745" stroke-width="3.2" fill="#FFDB00" stroke-linecap="round" stroke-linejoin="round"></path>
                    <circle id="Oval-4" fill="#333745" cx="32" cy="72" r="2"></circle>
                    <circle id="Oval-4-Copy" fill="#333745" cx="48" cy="72" r="2"></circle>
                    <polyline id="Path-7" stroke="#333745" stroke-width="2" stroke-linecap="round" stroke-linejoin="round" points="22 48 27 50 31 67 50 67"></polyline>
                    <polyline id="Path-8" stroke="#333745" stroke-width="2" stroke-linecap="round" stroke-linejoin="round" points="34 51 51 51 51 59 31 63"></polyline>
                </g>
            </g>
        </g>
    </g>
</svg>